<?xml version="1.0" standalone="no"?>
<!DOCTYPE svg PUBLIC "-//W3C//DTD SVG 20010904//EN"
 "http://www.w3.org/TR/2001/REC-SVG-20010904/DTD/svg10.dtd">
<svg version="1.0" xmlns="http://www.w3.org/2000/svg"
 width="512.000000pt" height="512.000000pt" viewBox="0 0 512.000000 512.000000"
 preserveAspectRatio="xMidYMid meet">

<g transform="translate(0.000000,512.000000) scale(0.100000,-0.100000)"
fill="#000000" stroke="none">
<path d="M2210 4939 c0 -12 13 -63 29 -113 55 -171 61 -350 20 -558 -54 -273
-212 -548 -402 -700 -58 -45 -93 -49 -136 -12 -42 35 -80 157 -119 384 l-8 45
-110 -110 c-235 -235 -354 -485 -354 -744 0 -134 21 -233 99 -482 85 -273 94
-316 95 -449 1 -103 -1 -119 -22 -155 -51 -90 -160 -119 -221 -61 -33 32 -52
77 -151 365 l-64 184 -23 -69 c-102 -295 -153 -651 -134 -912 30 -383 157
-663 415 -909 143 -138 381 -286 556 -348 l41 -14 -21 29 c-12 16 -39 68 -61
115 -160 340 -121 773 101 1150 56 93 83 115 127 99 21 -7 34 -28 64 -102 47
-116 111 -220 206 -334 61 -73 78 -88 102 -88 42 0 58 26 66 110 13 143 46
366 72 480 57 258 191 510 367 687 70 71 98 93 118 93 29 0 68 -40 68 -70 0
-9 8 -48 19 -86 46 -173 144 -378 331 -689 211 -352 304 -599 317 -845 7 -129
-9 -254 -47 -372 -15 -48 -24 -88 -20 -88 13 0 180 113 250 169 105 83 286
268 364 371 126 166 217 372 251 564 52 299 -31 656 -252 1088 -140 275 -313
515 -525 729 l-112 114 -8 -54 c-15 -100 -73 -161 -152 -161 -87 1 -115 53
-127 244 -16 243 -50 399 -131 604 -84 212 -217 411 -393 588 -128 129 -220
203 -355 284 -91 55 -130 63 -130 29z"/>
</g>
</svg>
